<svg width="28" height="28" viewBox="0 0 28 28" fill="none" xmlns="http://www.w3.org/2000/svg">
<path d="M14.0001 2.33337C11.5408 2.33325 9.18088 3.30376 7.4332 5.03396C5.68552 6.76417 4.69134 9.11423 4.66675 11.5734C4.66675 17.9667 12.8917 25.0834 13.2417 25.3867C13.4531 25.5675 13.722 25.6668 14.0001 25.6668C14.2782 25.6668 14.5471 25.5675 14.7584 25.3867C15.1667 25.0834 23.3334 17.9667 23.3334 11.5734C23.3088 9.11423 22.3146 6.76417 20.567 5.03396C18.8193 3.30376 16.4593 2.33325 14.0001 2.33337ZM14.0001 22.925C12.0517 21.07 7.00008 15.925 7.00008 11.5734C7.00008 9.71686 7.73758 7.93638 9.05033 6.62363C10.3631 5.31087 12.1436 4.57337 14.0001 4.57337C15.8566 4.57337 17.6371 5.31087 18.9498 6.62363C20.2626 7.93638 21.0001 9.71686 21.0001 11.5734C21.0001 15.89 15.9484 21.07 14.0001 22.925Z" fill="white"/>
<path d="M14.0001 7C13.1925 7 12.403 7.23948 11.7315 7.68817C11.06 8.13685 10.5366 8.77458 10.2276 9.52071C9.91852 10.2668 9.83765 11.0879 9.99521 11.88C10.1528 12.672 10.5417 13.3996 11.1127 13.9707C11.6838 14.5417 12.4114 14.9307 13.2035 15.0882C13.9956 15.2458 14.8166 15.1649 15.5627 14.8558C16.3088 14.5468 16.9466 14.0234 17.3953 13.3519C17.8439 12.6804 18.0834 11.8909 18.0834 11.0833C18.0834 10.0004 17.6532 8.96175 16.8874 8.19598C16.1217 7.43021 15.0831 7 14.0001 7ZM14.0001 12.8333C13.654 12.8333 13.3156 12.7307 13.0278 12.5384C12.7401 12.3461 12.5157 12.0728 12.3833 11.753C12.2508 11.4333 12.2162 11.0814 12.2837 10.7419C12.3512 10.4025 12.5179 10.0906 12.7626 9.8459C13.0074 9.60115 13.3192 9.43448 13.6587 9.36696C13.9981 9.29943 14.35 9.33409 14.6698 9.46654C14.9896 9.599 15.2629 9.8233 15.4552 10.1111C15.6474 10.3989 15.7501 10.7372 15.7501 11.0833C15.7501 11.5475 15.5657 11.9926 15.2375 12.3208C14.9093 12.649 14.4642 12.8333 14.0001 12.8333Z" fill="white"/>
</svg>
